<svg xmlns="http://www.w3.org/2000/svg" width="121" height="23" viewBox="0 0 121 23" fill="none"><g clip-path="url(#clip0_291_1990)"><path d="M18.3499 2.25999C15.4999 4.98999 13.6999 9.86999 15.6399 11.9C17.5799 13.93 22.5299 12.35 25.3799 9.61999C28.2299 6.88999 28.5799 3.39999 26.6299 1.36999C24.6899 -0.660011 21.1899 -0.470011 18.3399 2.25999H18.3499Z" fill="#545AFF"></path><path d="M22.5599 21.21C23.6799 19.87 23.3199 17.72 21.4399 16.14C19.5499 14.56 16.4099 13.79 15.2899 15.13C14.1699 16.47 15.4899 19.42 17.3699 21C19.2599 22.58 21.4399 22.55 22.5599 21.21Z" fill="#545AFF"></path><path d="M12.2199 11.89C14.1599 9.86001 12.3699 4.99001 9.5099 2.25001C6.6599 -0.47999 3.1699 -0.66999 1.2199 1.36001C-0.720104 3.39001 -0.380104 6.88001 2.4799 9.61001C5.3299 12.34 10.2799 13.92 12.2199 11.89Z" fill="#545AFF"></path><path d="M6.43 16.14C4.54 17.72 4.18 19.87 5.31 21.21C6.43 22.55 8.61 22.58 10.5 21C12.39 19.42 13.71 16.47 12.58 15.13C11.46 13.79 8.32 14.56 6.43 16.14Z" fill="#545AFF"></path><path d="M37.34 3.14001V20.28H33.96V3.14001H37.34Z" fill="white"></path><path d="M42.9399 7.44999L43.2399 9.07999C44.0699 8.07999 45.2699 7.29999 47.2699 7.29999C50.0699 7.29999 52.4199 8.79999 52.4199 13.15V20.28H49.2399V13.45C49.2399 11.17 48.3099 9.94999 46.4399 9.94999C44.5699 9.94999 43.3399 11.35 43.3399 13.75V20.28H40.1599V7.44999H42.9399Z" fill="white"></path><path d="M55.96 7.44999V6.36999C55.96 4.03999 57.16 2.76999 59.69 2.76999H62.44V5.49999H60.21C59.43 5.49999 59.08 5.84999 59.08 6.62999V7.45999H62.43V10.19H59.13V20.29H55.95V10.19H53.77V7.45999H55.95L55.96 7.44999Z" fill="white"></path><path d="M63.0701 13.88C63.0701 9.92999 65.7501 7.29999 69.7501 7.29999C73.7501 7.29999 76.4301 9.92999 76.4301 13.88C76.4301 17.83 73.7501 20.43 69.7501 20.43C65.7501 20.43 63.0701 17.8 63.0701 13.88ZM73.1701 13.88C73.1701 11.55 71.8401 9.92999 69.7401 9.92999C67.6401 9.92999 66.3101 11.56 66.3101 13.88C66.3101 16.2 67.6401 17.81 69.7401 17.81C71.8401 17.81 73.1701 16.18 73.1701 13.88Z" fill="white"></path><path d="M79.48 10.18H77.3V7.44999H79.48V4.57999H82.66V7.44999H85.69V10.18H82.66V16.23C82.66 17.18 83.01 17.56 83.99 17.56H85.79V20.29H83.06C80.61 20.29 79.48 19.11 79.48 16.69V10.19V10.18Z" fill="white"></path><path d="M93.5599 7.29999C97.0599 7.29999 99.1099 8.92999 99.1099 11.98V16.76C99.1099 17.44 99.3599 17.59 99.9099 17.59H100.39V20.29H98.7399C96.9599 20.29 96.3599 19.46 96.3899 18.21C95.5099 19.56 94.2099 20.44 92.1899 20.44C89.3899 20.44 87.4099 19.09 87.4099 16.69C87.4099 13.99 89.3899 12.49 93.1099 12.49H95.9599V11.79C95.9599 10.51 95.0599 9.70999 93.4299 9.70999C91.9499 9.70999 90.9799 10.39 90.7999 11.41H87.7199C87.9699 8.90999 90.2199 7.30999 93.5499 7.30999L93.5599 7.29999ZM90.6099 16.45C90.6099 17.43 91.4099 18.08 92.7099 18.08C94.7399 18.08 95.9399 16.85 95.9599 15V14.65H93.0599C91.4799 14.65 90.6099 15.28 90.6099 16.45Z" fill="white"></path><path d="M105.35 3.14001V20.28H102.17V3.14001H105.35Z" fill="white"></path><path d="M107.33 13.9C107.33 9.91999 109.93 7.29999 113.81 7.29999C117.69 7.29999 120.14 9.67999 120.19 13.43C120.19 13.81 120.16 14.18 120.11 14.58H110.66V14.76C110.74 16.74 111.99 17.96 113.91 17.96C115.44 17.96 116.51 17.26 116.86 15.96H120.01C119.58 18.46 117.38 20.44 114.06 20.44C109.88 20.44 107.33 17.84 107.33 13.91V13.9ZM113.83 9.71999C112.23 9.71999 110.93 10.75 110.73 12.4H116.96C116.73 10.67 115.56 9.71999 113.83 9.71999Z" fill="white"></path></g><defs><clipPath id="clip0_291_1990"><rect width="120.19" height="22.2" fill="white"></rect></clipPath></defs></svg>